# xmcd CD database file
#
# Track frame offsets:
#	150
#	12148
#	25414
#	40056
#	53947
#	67425
#	81036
#	95628
#	108660
#	122357
#	134644
#	148181
#	156149
#	170080
#	179110
#	199555
#
# Disc length: 2800 seconds
#
# Revision: 0
# Processed by: cddbd v1.5PL3 Copyright (c) Steve Scherf et al.
# Submitted via: CDex 1.51
#
DISCID=ee0aee10
DTITLE=Mel Thromé - How High The Moon [CD1]
DYEAR=1900
DGENRE=Jazz
TTITLE0=Born to be blue
TTITLE1=What is this thing called love
TTITLE2=Get out of town
TTITLE3=For you, for me forevermore
TTITLE4=A stranger in town
TTITLE5=Willow Road
TTITLE6=Where or when
TTITLE7=Mookin' whoopee
TTITLE8=It's dreamtime
TTITLE9=Night and day
TTITLE10=Gone with the wind
TTITLE11=Love me or leave me
TTITLE12=A cottage for sale
TTITLE13=Three little words
TTITLE14=County fair
TTITLE15=How high the monn
EXTD=
EXTT0=
EXTT1=
EXTT2=
EXTT3=
EXTT4=
EXTT5=
EXTT6=
EXTT7=
EXTT8=
EXTT9=
EXTT10=
EXTT11=
EXTT12=
EXTT13=
EXTT14=
EXTT15=
PLAYORDER=
